<svg xmlns="http://www.w3.org/2000/svg" viewBox="0 0 887.19 871.5"><title>tutorial</title><circle cx="421.14" cy="347.33" r="341.83" fill="none" stroke="#cebd44" stroke-miterlimit="10" stroke-width="11" stroke-dasharray="20"/><rect x="466.25" y="536.06" width="420.94" height="333.25" fill="#fff"/><path d="M921.54,597.56H500.6V430.94H896.21a25.33,25.33,0,0,1,25.33,25.33Z" transform="translate(-34.35 -61.5)" fill="#d66"/><rect x="19" y="461.52" width="447.25" height="409.98" fill="#fff"/><polygon points="466.25 461.52 19 461.52 19 381.86 242.63 215.97 466.25 382.59 466.25 461.52" fill="#e89696"/><polygon points="242.63 155.68 0 333.26 0 396.48 242.63 218.16 485.25 396.48 485.25 333.26 242.63 155.68" fill="#d66"/><rect x="118.21" y="598.55" width="248.84" height="201.7" fill="#e89696"/><rect x="118.21" y="545.93" width="248.84" height="52.25" fill="#d66"/><rect x="118.21" y="800.25" width="248.84" height="52.25" fill="#d66"/></svg>